<?xml version="1.0" encoding="utf-8"?>
<!-- Generator: Adobe Illustrator 17.0.0, SVG Export Plug-In . SVG Version: 6.00 Build 0)  -->
<!DOCTYPE svg PUBLIC "-//W3C//DTD SVG 1.1//EN" "http://www.w3.org/Graphics/SVG/1.1/DTD/svg11.dtd">
<svg version="1.1" id="Calque_1" xmlns="http://www.w3.org/2000/svg" xmlns:xlink="http://www.w3.org/1999/xlink" x="0px" y="0px"
	 width="960px" height="960px" viewBox="0 0 960 960" enable-background="new 0 0 960 960" xml:space="preserve">
<g>
	<path fill="#FFDA44" d="M791.825,489.048l-41.347-38.581l15.435-38.583l-14.3-42.587H553.091l28.392,256.348h271.425V519.206
		L791.825,489.048z"/>
	<circle fill="#03232E" cx="717.197" cy="625.644" r="66.529"/>
	<circle fill="#B4D2D7" cx="717.197" cy="625.644" r="23.945"/>
	<path fill="#0B799D" d="M624.071,411.884h42.587v77.163h-42.587V411.884z"/>
	<path fill="#07485E" d="M709.244,411.884v77.164h82.581l-25.911-77.164H709.244z"/>
	<path fill="#FFB655" d="M581.484,263.743h-91.961l-28.391,132.669l28.391,229.233h91.961V263.743z"/>
	<path fill="#FFDA44" d="M126.136,263.743h363.386v361.902H126.136V263.743z"/>
	<path fill="#E50058" d="M489.523,50.575l-28.391,143.252l28.391,202.584l101.293-101.293
		c25.923-25.923,41.957-61.736,41.957-101.293C632.772,114.71,568.637,50.575,489.523,50.575L489.523,50.575z"/>
	<path fill="#FF415B" d="M346.273,193.825c0,39.557,16.034,75.37,41.957,101.293l101.293,101.294V50.575
		C410.408,50.575,346.273,114.71,346.273,193.825L346.273,193.825z"/>
	<path fill="#FF415B" d="M489.523,93.16l-28.391,100.668l28.391,100.668c55.507,0,100.668-45.159,100.668-100.668
		S545.03,93.16,489.523,93.16z"/>
	<path fill="#FF7C48" d="M388.855,193.828c0,55.509,45.159,100.668,100.668,100.668V93.16
		C434.015,93.16,388.855,138.319,388.855,193.828L388.855,193.828z"/>
	<path fill="#E1EBF0" d="M547.606,193.828c0-32.028-26.056-58.084-58.084-58.084l-28.391,58.084l28.391,58.084
		C521.549,251.911,547.606,225.855,547.606,193.828L547.606,193.828z"/>
	<path fill="#FFF5F5" d="M431.439,193.828c0,32.028,26.056,58.084,58.084,58.084V135.744
		C457.495,135.744,431.439,161.8,431.439,193.828L431.439,193.828z"/>
	<ellipse fill="#07485E" cx="261.771" cy="625.544" rx="66.523" ry="66.523"/>
	<path fill="#E1EBF0" d="M261.85,601.699c-13.204,0-23.947,10.741-23.947,23.945c0,13.204,10.743,23.945,23.947,23.945
		c13.204,0,23.945-10.741,23.945-23.945C285.795,612.44,275.054,601.699,261.85,601.699z"/>
</g>
</svg>
